<svg width="1354" height="763" viewBox="0 0 1354 763" fill="none" xmlns="http://www.w3.org/2000/svg">
<g clip-path="url(#clip0_2_2)">
<rect width="1354" height="763" fill="black"/>
<path fill-rule="evenodd" clip-rule="evenodd" d="M1282.97 -160.361C1360.2 -194.778 1462.38 -119.818 1505.43 -50.8032C1548.04 17.5074 1463.17 108.543 1496.14 181.353C1527.41 250.445 1663.97 250.619 1675.49 324.849C1685.95 392.286 1614.13 467.642 1542.82 482.283C1463.56 498.553 1402.44 385.128 1322.36 397.344C1258.23 407.125 1265.11 528.725 1200.43 534.509C1146.68 539.316 1130.81 460.621 1104.04 416.867C1081.95 380.757 1073.34 341.485 1058.37 302.323C1039 251.681 977.59 201.136 1003.11 152.93C1028.92 104.195 1127.71 142.669 1165.01 100.914C1231.2 26.82 1189.7 -118.788 1282.97 -160.361Z" fill="white"/>
<path fill-rule="evenodd" clip-rule="evenodd" d="M1402.62 682.507C1391.96 774.568 1279.17 799.04 1187.46 812.987C1105.9 825.391 1017.06 817.682 973.27 747.803C919.516 662.014 900.364 542.079 974.557 473.199C1042.32 410.294 1138.61 476.522 1221.71 517.155C1302.87 556.839 1413 592.845 1402.62 682.507Z" fill="#7AB7AC"/>
<path d="M1179.58 574.821L1121.71 651.403L1068.01 715.691C1068.01 715.691 1005.97 715.691 1005.92 715.691C1005.92 715.691 1001.68 730.071 1001.28 731.037C996.798 742.063 990.275 752.641 980.978 760.246C965.515 772.891 940.564 776.687 926.159 760.467C906.838 738.71 908.26 702.437 909.004 675.228C909.552 655.366 912.099 635.62 915.139 616.004C916.665 606.183 918.326 596.388 919.951 586.586C921.218 578.937 922.467 571.289 923.667 563.634C923.92 562.034 924.147 560.435 924.424 558.841C928.024 560.164 931.408 561.524 935.309 562.041C942.939 563.062 950.723 561.868 957.891 559.149C963.503 557.014 968.745 553.98 973.576 550.417L974.191 570.114C974.191 570.114 1004.56 518.402 1058 504.533L1058.66 482.72C1067.18 487.108 1090.98 496.565 1114.61 480.862L1116.14 503.567L1152.86 513.24C1159.8 525.774 1167.95 543.378 1168.22 543.969C1168.23 543.981 1168.23 543.987 1168.23 543.987C1168.23 543.987 1172.48 556.146 1179.58 574.821Z" fill="#060606"/>
<path d="M1015.91 561.641C1016.58 561.641 1017.13 561.095 1017.13 560.422C1017.13 559.75 1016.58 559.204 1015.91 559.204C1015.24 559.204 1014.69 559.75 1014.69 560.422C1014.69 561.095 1015.24 561.641 1015.91 561.641Z" fill="white"/>
<path d="M1051.83 596.892C1052.5 596.892 1053.04 596.347 1053.04 595.674C1053.04 595.001 1052.5 594.455 1051.83 594.455C1051.15 594.455 1050.61 595.001 1050.61 595.674C1050.61 596.347 1051.15 596.892 1051.83 596.892Z" fill="white"/>
<path d="M1148.34 550.042C1149.01 550.042 1149.56 549.497 1149.56 548.824C1149.56 548.151 1149.01 547.605 1148.34 547.605C1147.66 547.605 1147.12 548.151 1147.12 548.824C1147.12 549.497 1147.66 550.042 1148.34 550.042Z" fill="white"/>
<path d="M1038.02 659.574C1038.7 659.574 1039.24 659.029 1039.24 658.356C1039.24 657.683 1038.7 657.138 1038.02 657.138C1037.35 657.138 1036.81 657.683 1036.81 658.356C1036.81 659.029 1037.35 659.574 1038.02 659.574Z" fill="white"/>
<path d="M1083.8 626.04C1084.47 626.04 1085.02 625.494 1085.02 624.821C1085.02 624.148 1084.47 623.603 1083.8 623.603C1083.12 623.603 1082.58 624.148 1082.58 624.821C1082.58 625.494 1083.12 626.04 1083.8 626.04Z" fill="white"/>
<path d="M1134.05 606.226C1134.72 606.226 1135.27 605.681 1135.27 605.008C1135.27 604.335 1134.72 603.79 1134.05 603.79C1133.38 603.79 1132.83 604.335 1132.83 605.008C1132.83 605.681 1133.38 606.226 1134.05 606.226Z" fill="white"/>
<path d="M1044.12 535.533C1044.79 535.533 1045.33 534.987 1045.33 534.315C1045.33 533.642 1044.79 533.096 1044.12 533.096C1043.44 533.096 1042.9 533.642 1042.9 534.315C1042.9 534.987 1043.44 535.533 1044.12 535.533Z" fill="white"/>
<path d="M986.645 676.36C987.318 676.36 987.863 675.815 987.863 675.142C987.863 674.469 987.318 673.923 986.645 673.923C985.972 673.923 985.427 674.469 985.427 675.142C985.427 675.815 985.972 676.36 986.645 676.36Z" fill="white"/>
<path d="M928.959 691.14C929.632 691.14 930.177 690.595 930.177 689.922C930.177 689.249 929.632 688.703 928.959 688.703C928.286 688.703 927.741 689.249 927.741 689.922C927.741 690.595 928.286 691.14 928.959 691.14Z" fill="white"/>
<path d="M999.862 618.89C1000.53 618.89 1001.08 618.344 1001.08 617.671C1001.08 616.998 1000.53 616.453 999.862 616.453C999.189 616.453 998.644 616.998 998.644 617.671C998.644 618.344 999.189 618.89 999.862 618.89Z" fill="white"/>
<path d="M934.343 575.018C935.016 575.018 935.561 574.472 935.561 573.799C935.561 573.126 935.016 572.581 934.343 572.581C933.67 572.581 933.125 573.126 933.125 573.799C933.125 574.472 933.67 575.018 934.343 575.018Z" fill="white"/>
<path d="M950.544 634.888C951.217 634.888 951.763 634.342 951.763 633.669C951.763 632.997 951.217 632.451 950.544 632.451C949.871 632.451 949.326 632.997 949.326 633.669C949.326 634.342 949.871 634.888 950.544 634.888Z" fill="white"/>
<path d="M961.485 748.192C962.157 748.192 962.703 747.647 962.703 746.974C962.703 746.301 962.157 745.755 961.485 745.755C960.812 745.755 960.266 746.301 960.266 746.974C960.266 747.647 960.812 748.192 961.485 748.192Z" fill="white"/>
<path d="M957.823 711.778C957.774 711.778 957.725 711.778 957.682 711.771C957.005 711.691 956.525 711.082 956.605 710.406L972.973 569.966C973.052 569.289 973.662 568.803 974.339 568.889C975.015 568.969 975.495 569.578 975.415 570.255L959.048 710.695C958.968 711.316 958.439 711.778 957.823 711.778Z" fill="#323232"/>
<path d="M1006.37 715.71C1006.25 715.71 1006.14 715.691 1006.03 715.66C1005.37 715.47 1005 714.787 1005.19 714.134C1005.33 713.661 1019.06 666.084 1024.22 617.542C1024.3 616.865 1024.9 616.385 1025.58 616.447C1026.25 616.521 1026.74 617.124 1026.67 617.801C1021.48 666.564 1007.69 714.343 1007.55 714.817C1007.39 715.359 1006.91 715.71 1006.37 715.71Z" fill="#323232"/>
<path d="M1079.36 510.176C1064.81 510.176 1057.68 505.782 1057.34 505.567C1056.77 505.204 1056.59 504.441 1056.96 503.869C1057.32 503.296 1058.08 503.124 1058.66 503.487C1058.77 503.561 1067.95 509.124 1086.52 507.37C1087.2 507.302 1087.8 507.801 1087.86 508.477C1087.93 509.154 1087.43 509.757 1086.76 509.819C1084.1 510.071 1081.64 510.176 1079.36 510.176Z" fill="white"/>
<path d="M1155.97 387.974C1155.97 398.484 1147.45 407.006 1136.94 407.006C1133.65 407.006 1130.56 406.175 1127.87 404.711C1125.2 417.152 1119.72 428.043 1112.39 436.123C1104.02 445.358 1093.23 450.915 1081.45 450.915C1074.66 450.915 1068.19 449.063 1062.33 445.721C1049.07 438.178 1038.91 423.029 1034.98 404.452C1032.3 405.898 1029.23 406.717 1025.97 406.717C1015.45 406.717 1006.93 398.195 1006.93 387.679C1006.93 377.169 1015.45 368.647 1025.97 368.647C1029.19 368.647 1032.22 369.447 1034.88 370.856C1035.64 367.103 1036.66 363.491 1037.91 360.051C1043.6 344.324 1054.07 332.171 1066.83 326.83C1071.44 324.898 1076.35 323.858 1081.45 323.858C1088.78 323.858 1095.73 326.012 1101.95 329.87C1111.23 335.617 1118.9 345.154 1123.8 356.968C1125.64 361.393 1127.08 366.137 1128.08 371.121C1130.73 369.73 1133.74 368.942 1136.94 368.942C1147.45 368.942 1155.97 377.465 1155.97 387.974Z" fill="#FFAB93"/>
<path d="M1114.61 480.856C1090.98 496.559 1067.18 487.101 1058.66 482.714L1058.96 464.384L1059.3 444.066C1059.46 444.195 1059.63 444.325 1059.81 444.448C1060.61 445.032 1061.45 445.451 1062.32 445.721C1066.6 448.158 1071.2 449.807 1076.01 450.515C1077.8 450.779 1079.61 450.915 1081.44 450.915C1093.22 450.915 1104 445.358 1112.38 436.123C1112.34 437.181 1112.28 438.362 1112.19 439.685L1114.61 480.856Z" fill="#FFAB93"/>
<path d="M1081.48 452.398C1067.76 452.398 1058.99 445.408 1058.51 445.02C1057.98 444.589 1057.91 443.814 1058.34 443.291C1058.77 442.768 1059.55 442.688 1060.07 443.113C1060.21 443.229 1074.48 454.539 1094.65 447.691C1095.29 447.469 1095.99 447.814 1096.21 448.46C1096.43 449.106 1096.08 449.801 1095.44 450.023C1090.38 451.733 1085.7 452.398 1081.48 452.398Z" fill="#323232"/>
<path d="M1084.14 405.923C1081.98 405.923 1080.22 404.163 1080.22 402.003V397.007C1080.22 396.33 1080.78 395.776 1081.45 395.776C1082.13 395.776 1082.68 396.33 1082.68 397.007V402.003C1082.68 402.809 1083.34 403.462 1084.14 403.462C1084.82 403.462 1085.37 404.015 1085.37 404.692C1085.37 405.369 1084.82 405.923 1084.14 405.923Z" fill="#323232"/>
<path d="M1114.61 399.887C1117.74 399.887 1120.27 397.352 1120.27 394.226C1120.27 391.099 1117.74 388.565 1114.61 388.565C1111.49 388.565 1108.95 391.099 1108.95 394.226C1108.95 397.352 1111.49 399.887 1114.61 399.887Z" fill="#EC6834"/>
<path d="M1032.81 388.614H1022.04C1021.37 388.614 1020.81 388.06 1020.81 387.383C1020.81 386.707 1021.37 386.153 1022.04 386.153H1032.81C1033.48 386.153 1034.04 386.707 1034.04 387.383C1034.04 388.06 1033.48 388.614 1032.81 388.614Z" fill="#323232"/>
<path d="M1141.1 388.614H1130.34C1129.66 388.614 1129.11 388.06 1129.11 387.383C1129.11 386.707 1129.66 386.153 1130.34 386.153H1141.1C1141.78 386.153 1142.33 386.707 1142.33 387.383C1142.33 388.06 1141.78 388.614 1141.1 388.614Z" fill="#323232"/>
<path d="M1097.4 389.34C1098.9 389.34 1100.11 388.128 1100.11 386.633C1100.11 385.138 1098.9 383.925 1097.4 383.925C1095.91 383.925 1094.69 385.138 1094.69 386.633C1094.69 388.128 1095.91 389.34 1097.4 389.34Z" fill="#323232"/>
<path d="M1060.77 389.34C1062.26 389.34 1063.47 388.128 1063.47 386.633C1063.47 385.138 1062.26 383.925 1060.77 383.925C1059.27 383.925 1058.06 385.138 1058.06 386.633C1058.06 388.128 1059.27 389.34 1060.77 389.34Z" fill="#323232"/>
<path d="M1130.11 405.923H1090.21C1089.59 405.923 1089.08 405.461 1089 404.852C1088.51 401.08 1085.27 398.238 1081.46 398.238C1077.65 398.238 1074.41 401.08 1073.92 404.852C1073.84 405.468 1073.32 405.923 1072.7 405.923H1032.81C1032.13 405.923 1031.58 405.369 1031.58 404.692V370.339C1031.58 369.662 1032.13 369.109 1032.81 369.109H1130.11C1130.78 369.109 1131.34 369.662 1131.34 370.339V404.692C1131.34 405.369 1130.78 405.923 1130.11 405.923ZM1091.24 403.462H1128.88V371.57H1034.04V403.462H1071.68C1072.76 399.013 1076.78 395.776 1081.46 395.776C1086.14 395.776 1090.16 399.013 1091.24 403.462Z" fill="#7AB7AC"/>
<path d="M1059.16 375.089C1062.71 371.934 1064.04 367.629 1062.12 365.475C1060.21 363.32 1055.78 364.131 1052.23 367.286C1048.67 370.441 1047.34 374.745 1049.26 376.9C1051.17 379.055 1055.6 378.244 1059.16 375.089Z" fill="#323232"/>
<path d="M1108.27 376.904C1110.19 374.749 1108.86 370.445 1105.31 367.29C1101.75 364.135 1097.32 363.324 1095.41 365.478C1093.5 367.633 1094.82 371.937 1098.38 375.092C1101.93 378.247 1106.36 379.058 1108.27 376.904Z" fill="#323232"/>
<path d="M1088.5 413.301C1087.91 413.301 1087.39 412.876 1087.29 412.279C1087.17 411.608 1087.62 410.975 1088.28 410.858C1088.33 410.852 1092.52 410.064 1094.68 406.741C1096.05 404.625 1096.34 401.886 1095.53 398.594C1095.37 397.936 1095.77 397.265 1096.44 397.105C1097.09 396.945 1097.76 397.345 1097.92 398.01C1098.9 401.997 1098.5 405.394 1096.72 408.107C1093.97 412.328 1088.92 413.245 1088.71 413.282C1088.64 413.294 1088.57 413.301 1088.5 413.301Z" fill="#323232"/>
<path d="M1081.45 310.697C1092.66 310.697 1101.75 301.611 1101.75 290.404C1101.75 279.196 1092.66 270.11 1081.45 270.11C1070.25 270.11 1061.16 279.196 1061.16 290.404C1061.16 301.611 1070.25 310.697 1081.45 310.697Z" fill="#323232"/>
<path d="M1123.79 356.968C1112.98 359.83 1098.91 356.353 1086.21 347.382C1082.23 350.298 1077.75 352.901 1072.84 355.049C1060.66 360.377 1048.19 361.897 1037.89 360.051C1043.59 344.324 1054.05 332.171 1066.82 326.83C1071.43 324.898 1076.34 323.858 1081.44 323.858C1088.77 323.858 1095.72 326.012 1101.94 329.87C1111.22 335.617 1118.89 345.154 1123.79 356.968Z" fill="#323232"/>
<path d="M1369.06 646.283C1366.02 749.349 1329.65 793.301 1282.66 765.261C1269.92 757.656 1255.68 737.916 1241.69 713.168C1232.54 696.998 1223.5 678.692 1215.06 660.245C1212.47 654.596 1209.94 648.929 1207.48 643.312C1201.77 630.285 1196.44 617.493 1191.67 605.654C1187.08 594.289 1183 583.798 1179.58 574.821C1172.48 556.146 1168.23 543.981 1168.23 543.981C1168.23 543.981 1171.81 544.283 1177.13 542.874C1186.01 540.535 1199.75 533.441 1209.73 512.262L1220.14 529.189C1220.14 529.189 1242 504.293 1266.07 491.347L1265.18 474.531C1271.15 478.77 1295.21 492.245 1326.61 461.8L1331.05 483.286C1331.05 483.286 1372.08 543.224 1369.06 646.283Z" fill="#171D3E"/>
<path d="M1304.58 695.164C1304.14 695.164 1303.7 694.918 1303.49 694.493L1219.05 529.749C1218.74 529.146 1218.98 528.401 1219.58 528.094C1220.19 527.786 1220.93 528.02 1221.24 528.629L1305.68 693.374C1305.99 693.977 1305.75 694.721 1305.14 695.029C1304.97 695.121 1304.78 695.164 1304.58 695.164Z" fill="#323232"/>
<path d="M1237.16 563.604C1237.07 563.604 1236.99 563.597 1236.89 563.573C1236.23 563.431 1235.81 562.773 1235.95 562.108L1243.51 527.294C1243.65 526.629 1244.31 526.211 1244.97 526.352C1245.64 526.494 1246.06 527.152 1245.91 527.817L1238.36 562.631C1238.23 563.216 1237.72 563.604 1237.16 563.604Z" fill="#323232"/>
<path d="M1295.11 676.68C1294.45 676.68 1293.9 676.157 1293.88 675.493L1289.53 548.867C1289.51 548.19 1290.04 547.618 1290.72 547.593C1290.73 547.593 1290.75 547.593 1290.76 547.593C1291.42 547.593 1291.97 548.116 1292 548.781L1296.34 675.406C1296.36 676.083 1295.83 676.655 1295.15 676.68C1295.14 676.68 1295.12 676.68 1295.11 676.68Z" fill="#323232"/>
<path d="M1241.69 713.168H1205.43L1215.06 660.245C1223.5 678.692 1232.54 696.998 1241.69 713.168Z" fill="#171D3E"/>
<path d="M1209.04 646.856L1162.27 715.476L1133.56 669.592L1121.96 651.071L1179.58 574.821C1183 583.798 1187.08 594.289 1191.67 605.654C1196.44 617.493 1203.33 633.829 1209.04 646.856Z" fill="#171D3E"/>
<path d="M1240.48 714.731C1240.01 714.731 1239.56 714.46 1239.35 714.005L1177.25 575.651C1176.97 575.03 1177.25 574.304 1177.87 574.027C1178.49 573.744 1179.21 574.027 1179.49 574.642L1241.59 712.99C1241.87 713.611 1241.59 714.337 1240.98 714.614C1240.82 714.694 1240.65 714.731 1240.48 714.731Z" fill="#323232"/>
<path d="M1193.48 467.67C1193.48 470.309 1192.47 472.955 1190.46 474.974L1124.36 541.071C1125.76 539.237 1123.86 535.084 1120.02 531.478C1119.84 531.306 1119.65 531.133 1119.46 530.967C1115.39 527.38 1110.88 525.774 1109.02 527.189L1134.09 502.115C1134.1 502.109 1134.11 502.103 1134.12 502.097L1170.67 465.541L1175.85 460.36C1179.88 456.329 1186.43 456.329 1190.46 460.36C1192.47 462.378 1193.48 465.024 1193.48 467.67Z" fill="white"/>
<path d="M1124.36 542.301C1124.08 542.301 1123.79 542.203 1123.56 542C1123.07 541.575 1123 540.843 1123.39 540.326C1124.11 539.372 1123.03 535.988 1119.18 532.376C1119.01 532.216 1118.83 532.05 1118.65 531.896C1114.54 528.266 1110.78 527.386 1109.76 528.168C1109.25 528.561 1108.51 528.488 1108.09 528.001C1107.67 527.515 1107.69 526.777 1108.15 526.322L1133.22 501.248C1133.24 501.223 1133.27 501.198 1133.29 501.18L1174.97 459.492C1179.48 454.988 1186.82 454.988 1191.33 459.492C1193.51 461.683 1194.71 464.587 1194.71 467.676C1194.71 470.759 1193.51 473.663 1191.34 475.847L1125.23 541.938C1124.99 542.178 1124.68 542.301 1124.36 542.301ZM1112.33 525.62C1114.52 526.045 1117.27 527.398 1120.27 530.044C1120.47 530.217 1120.67 530.395 1120.86 530.58C1123.48 533.047 1125.21 535.662 1125.8 537.883L1189.59 474.1C1191.3 472.377 1192.25 470.094 1192.25 467.664C1192.25 465.233 1191.3 462.944 1189.58 461.221C1186.03 457.677 1180.26 457.677 1176.71 461.221L1134.98 502.958C1134.95 502.983 1134.93 503.007 1134.91 503.026L1112.33 525.62Z" fill="#323232"/>
<path d="M1124.36 541.071L1123.99 541.446C1122.9 542.277 1120.88 542.061 1118.56 541.003C1116.96 540.271 1115.22 539.133 1113.55 537.662C1113.52 537.637 1113.49 537.613 1113.46 537.588C1111.04 535.428 1109.32 533.022 1108.58 531.023C1108.05 529.589 1108.03 528.358 1108.64 527.565L1109.02 527.189C1110.88 525.774 1115.39 527.38 1119.46 530.967C1119.65 531.133 1119.84 531.306 1120.02 531.478C1123.86 535.084 1125.76 539.237 1124.36 541.071Z" fill="white"/>
<path d="M1122.2 543.187C1121.01 543.187 1119.6 542.831 1118.05 542.123C1116.28 541.317 1114.44 540.092 1112.73 538.585C1112.73 538.585 1112.68 538.548 1112.68 538.542C1110.16 536.296 1108.26 533.724 1107.42 531.447C1106.53 529.035 1107.06 527.595 1107.66 526.814C1107.69 526.771 1107.73 526.734 1107.76 526.691L1108.14 526.315C1108.18 526.279 1108.22 526.242 1108.26 526.205C1110.24 524.697 1114.84 525.257 1120.26 530.038C1120.46 530.21 1120.65 530.389 1120.85 530.573C1125.32 534.776 1127.16 539.391 1125.33 541.809C1125.29 541.852 1125.26 541.895 1125.22 541.938L1124.84 542.314C1124.81 542.351 1124.76 542.388 1124.72 542.418C1124.07 542.929 1123.21 543.187 1122.2 543.187ZM1114.27 536.665C1114.29 536.684 1114.32 536.702 1114.32 536.708C1115.89 538.093 1117.52 539.176 1119.07 539.883C1121.14 540.831 1122.61 540.88 1123.19 540.505L1123.42 540.277C1124.06 539.256 1122.96 535.927 1119.17 532.376C1119 532.216 1118.83 532.05 1118.65 531.896C1114.6 528.328 1110.91 527.417 1109.81 528.131L1109.58 528.364C1109.31 528.783 1109.36 529.607 1109.73 530.598C1110.43 532.475 1112.13 534.745 1114.27 536.665Z" fill="#323232"/>
<path d="M1124.68 655.402L1123.86 654.092C1123.93 654.166 1123.99 654.246 1124.04 654.326C1124.3 654.689 1124.52 655.046 1124.68 655.402Z" fill="#ED1C24"/>
<path d="M1161.65 714.479H1049.3L1077.39 669.592L1090.1 649.268L1098.44 635.946V580.045H1112.51V635.952L1117.93 644.628L1121.97 651.071L1133.56 669.592L1161.65 714.479Z" fill="white"/>
<path d="M1108.73 527.454C1108.82 527.355 1108.91 527.263 1109.02 527.189L1108.64 527.565C1108.67 527.528 1108.7 527.491 1108.73 527.454Z" fill="#ED1C24"/>
<path d="M1124.36 541.071C1124.34 541.108 1124.31 541.145 1124.28 541.181C1124.19 541.28 1124.09 541.366 1123.99 541.446L1124.36 541.071Z" fill="#ED1C24"/>
<path d="M1141.75 523.682L1123.99 541.446C1122.9 542.277 1120.88 542.061 1118.56 541.003C1116.96 540.271 1115.22 539.133 1113.55 537.662C1113.52 537.637 1113.49 537.613 1113.46 537.588C1114.5 536.13 1116.49 533.841 1120.02 531.478C1124.46 528.5 1131.32 525.399 1141.75 523.682Z" fill="#7AB7AC"/>
<path d="M1161.65 714.479H1049.3L1077.39 669.592L1090.1 649.268C1095.24 649.502 1105.69 649.212 1117.93 644.628L1121.97 651.071L1133.56 669.592L1161.65 714.479Z" fill="#7AB7AC"/>
<path d="M1124.36 542.301C1124.08 542.301 1123.79 542.203 1123.56 542C1123.07 541.575 1123 540.843 1123.39 540.326C1124.11 539.372 1123.03 535.988 1119.18 532.376C1119.01 532.216 1118.83 532.05 1118.65 531.896C1114.54 528.266 1110.78 527.386 1109.76 528.168C1109.25 528.561 1108.51 528.488 1108.09 528.001C1107.67 527.515 1107.69 526.777 1108.15 526.322L1133.22 501.248C1133.24 501.223 1133.27 501.198 1133.29 501.18L1174.97 459.492C1179.48 454.988 1186.82 454.988 1191.33 459.492C1193.51 461.683 1194.71 464.587 1194.71 467.676C1194.71 470.759 1193.51 473.663 1191.34 475.847L1125.23 541.938C1124.99 542.178 1124.68 542.301 1124.36 542.301ZM1112.33 525.62C1114.52 526.045 1117.27 527.398 1120.27 530.044C1120.47 530.217 1120.67 530.395 1120.86 530.58C1123.48 533.047 1125.21 535.662 1125.8 537.883L1189.59 474.1C1191.3 472.377 1192.25 470.094 1192.25 467.664C1192.25 465.233 1191.3 462.944 1189.58 461.221C1186.03 457.677 1180.26 457.677 1176.71 461.221L1134.98 502.958C1134.95 502.983 1134.93 503.007 1134.91 503.026L1112.33 525.62Z" fill="#323232"/>
<path d="M1122.2 543.187C1121.01 543.187 1119.6 542.831 1118.05 542.123C1116.28 541.317 1114.44 540.092 1112.73 538.585C1112.73 538.585 1112.68 538.548 1112.68 538.542C1110.16 536.296 1108.26 533.724 1107.42 531.447C1106.53 529.035 1107.06 527.595 1107.66 526.814C1107.69 526.771 1107.73 526.734 1107.76 526.691L1108.14 526.315C1108.18 526.279 1108.22 526.242 1108.26 526.205C1110.24 524.697 1114.84 525.257 1120.26 530.038C1120.46 530.21 1120.65 530.389 1120.85 530.573C1125.32 534.776 1127.16 539.391 1125.33 541.809C1125.29 541.852 1125.26 541.895 1125.22 541.938L1124.84 542.314C1124.81 542.351 1124.76 542.388 1124.72 542.418C1124.07 542.929 1123.21 543.187 1122.2 543.187ZM1114.27 536.665C1114.29 536.684 1114.32 536.702 1114.32 536.708C1115.89 538.093 1117.52 539.176 1119.07 539.883C1121.14 540.831 1122.61 540.88 1123.19 540.505L1123.42 540.277C1124.06 539.256 1122.96 535.927 1119.17 532.376C1119 532.216 1118.83 532.05 1118.65 531.896C1114.6 528.328 1110.91 527.417 1109.81 528.131L1109.58 528.364C1109.31 528.783 1109.36 529.607 1109.73 530.598C1110.43 532.475 1112.13 534.745 1114.27 536.665Z" fill="#323232"/>
<path d="M1082.33 552.497C1082.1 552.497 1081.86 552.429 1081.65 552.294L1066.32 542.092C1065.76 541.717 1065.6 540.954 1065.98 540.388C1066.35 539.822 1067.12 539.668 1067.68 540.043L1083.01 550.245C1083.58 550.62 1083.73 551.383 1083.35 551.95C1083.12 552.306 1082.73 552.497 1082.33 552.497Z" fill="#323232"/>
<path d="M1082.33 561.653H1061.47C1060.79 561.653 1060.24 561.099 1060.24 560.422C1060.24 559.746 1060.79 559.192 1061.47 559.192H1082.33C1083.01 559.192 1083.56 559.746 1083.56 560.422C1083.56 561.099 1083.01 561.653 1082.33 561.653Z" fill="#323232"/>
<path d="M1064.66 579.11C1064.22 579.11 1063.8 578.876 1063.58 578.463C1063.25 577.867 1063.47 577.122 1064.08 576.796L1081.75 567.215C1082.34 566.889 1083.1 567.111 1083.42 567.708C1083.74 568.305 1083.52 569.049 1082.92 569.375L1065.25 578.956C1065.06 579.06 1064.86 579.11 1064.66 579.11Z" fill="#323232"/>
<path d="M1113.93 557.937C1114.82 562.268 1110.97 566.237 1107 565.08C1103.03 563.924 1101.91 558.509 1104.99 555.334L1111.12 549.021C1111.47 548.651 1112.06 548.818 1112.16 549.322L1113.93 557.937Z" fill="#7AB7AC"/>
<path d="M1059.89 710.067C1060.69 710.067 1061.34 709.417 1061.34 708.615C1061.34 707.813 1060.69 707.163 1059.89 707.163C1059.08 707.163 1058.43 707.813 1058.43 708.615C1058.43 709.417 1059.08 710.067 1059.89 710.067Z" fill="#323232"/>
<path d="M1116.86 707.163C1117.66 707.163 1118.31 706.513 1118.31 705.711C1118.31 704.909 1117.66 704.259 1116.86 704.259C1116.06 704.259 1115.41 704.909 1115.41 705.711C1115.41 706.513 1116.06 707.163 1116.86 707.163Z" fill="#323232"/>
<path d="M1101.72 691.829C1102.52 691.829 1103.17 691.179 1103.17 690.377C1103.17 689.575 1102.52 688.925 1101.72 688.925C1100.91 688.925 1100.26 689.575 1100.26 690.377C1100.26 691.179 1100.91 691.829 1101.72 691.829Z" fill="#323232"/>
<path d="M1084.97 707.163C1085.77 707.163 1086.42 706.513 1086.42 705.711C1086.42 704.909 1085.77 704.259 1084.97 704.259C1084.17 704.259 1083.52 704.909 1083.52 705.711C1083.52 706.513 1084.17 707.163 1084.97 707.163Z" fill="#323232"/>
<path d="M1129.69 699.742C1130.5 699.742 1131.15 699.092 1131.15 698.29C1131.15 697.488 1130.5 696.838 1129.69 696.838C1128.89 696.838 1128.24 697.488 1128.24 698.29C1128.24 699.092 1128.89 699.742 1129.69 699.742Z" fill="#323232"/>
<path d="M1106.93 674.053C1107.73 674.053 1108.38 673.403 1108.38 672.601C1108.38 671.799 1107.73 671.148 1106.93 671.148C1106.12 671.148 1105.47 671.799 1105.47 672.601C1105.47 673.403 1106.12 674.053 1106.93 674.053Z" fill="#323232"/>
<path d="M1094.95 658.584C1095.75 658.584 1096.4 657.934 1096.4 657.132C1096.4 656.33 1095.75 655.679 1094.95 655.679C1094.14 655.679 1093.49 656.33 1093.49 657.132C1093.49 657.934 1094.14 658.584 1094.95 658.584Z" fill="#323232"/>
<path d="M1113.95 655.544C1114.76 655.544 1115.41 654.894 1115.41 654.092C1115.41 653.29 1114.76 652.64 1113.95 652.64C1113.15 652.64 1112.5 653.29 1112.5 654.092C1112.5 654.894 1113.15 655.544 1113.95 655.544Z" fill="#323232"/>
<path d="M1132.6 683.91C1133.4 683.91 1134.05 683.26 1134.05 682.458C1134.05 681.656 1133.4 681.006 1132.6 681.006C1131.8 681.006 1131.15 681.656 1131.15 682.458C1131.15 683.26 1131.8 683.91 1132.6 683.91Z" fill="#323232"/>
<path d="M1081.13 681.006C1081.93 681.006 1082.58 680.356 1082.58 679.554C1082.58 678.752 1081.93 678.101 1081.13 678.101C1080.32 678.101 1079.67 678.752 1079.67 679.554C1079.67 680.356 1080.32 681.006 1081.13 681.006Z" fill="#323232"/>
<path d="M1144.73 708.615C1145.53 708.615 1146.18 707.965 1146.18 707.163C1146.18 706.361 1145.53 705.711 1144.73 705.711C1143.92 705.711 1143.27 706.361 1143.27 707.163C1143.27 707.965 1143.92 708.615 1144.73 708.615Z" fill="#323232"/>
<path d="M1161.65 715.71H1049.3C1048.85 715.71 1048.44 715.47 1048.23 715.076C1048.01 714.682 1048.02 714.208 1048.26 713.827L1097.21 635.595V580.045C1097.21 579.368 1097.76 578.814 1098.44 578.814H1112.51C1113.18 578.814 1113.74 579.368 1113.74 580.045V635.602L1162.69 713.827C1162.93 714.208 1162.95 714.682 1162.72 715.076C1162.51 715.47 1162.1 715.71 1161.65 715.71ZM1051.52 713.248H1159.43L1111.47 636.605C1111.34 636.408 1111.28 636.18 1111.28 635.952V581.275H1099.68V635.946C1099.68 636.18 1099.61 636.402 1099.49 636.598L1051.52 713.248Z" fill="#323232"/>
<path d="M1360.65 567.677C1350.25 567.677 1341.8 559.216 1341.8 548.824C1341.8 538.431 1350.26 529.97 1360.65 529.97C1371.04 529.97 1379.51 538.431 1379.51 548.824C1379.51 559.216 1371.05 567.677 1360.65 567.677ZM1360.65 532.432C1351.61 532.432 1344.26 539.785 1344.26 548.824C1344.26 557.863 1351.61 565.216 1360.65 565.216C1369.69 565.216 1377.04 557.863 1377.04 548.824C1377.04 539.785 1369.69 532.432 1360.65 532.432Z" fill="#323232"/>
<path d="M1352.84 462.224C1349.73 462.224 1347.2 459.695 1347.2 456.588C1347.2 453.481 1349.73 450.952 1352.84 450.952C1355.94 450.952 1358.47 453.481 1358.47 456.588C1358.47 459.695 1355.94 462.224 1352.84 462.224ZM1352.84 453.413C1351.08 453.413 1349.66 454.834 1349.66 456.588C1349.66 458.342 1351.08 459.763 1352.84 459.763C1354.59 459.763 1356.01 458.342 1356.01 456.588C1356.01 454.834 1354.58 453.413 1352.84 453.413Z" fill="#323232"/>
<path d="M969.779 469.528L888.496 527.989C888.453 528.02 888.404 528.051 888.361 528.081C882.355 532.296 874.061 530.9 869.766 524.925C868.061 522.556 867.237 519.812 867.237 517.098C867.237 512.926 869.175 508.816 872.824 506.195L876.073 503.856L954.107 447.734C951.849 449.53 953.449 455.72 957.725 461.664C961.995 467.602 967.349 471.085 969.773 469.522L969.779 469.528Z" fill="white"/>
<path d="M880.681 531.718C876.11 531.718 871.606 529.601 868.763 525.639C866.96 523.128 866 520.175 866 517.092C866 512.385 868.283 507.936 872.098 505.192L875.347 502.853L953.381 446.731C953.922 446.343 954.679 446.454 955.079 446.989C955.485 447.524 955.387 448.281 954.864 448.693C953.547 449.739 954.372 454.908 958.716 460.944C963.048 466.968 967.681 469.399 969.096 468.488C969.594 468.168 970.247 468.248 970.653 468.673C970.899 468.931 971.022 469.282 970.991 469.639C970.96 469.996 970.776 470.322 970.487 470.525L889.099 529.06C886.545 530.856 883.604 531.718 880.681 531.718ZM951.873 450.853L873.544 507.191C870.363 509.474 868.467 513.178 868.467 517.098C868.467 519.658 869.261 522.119 870.763 524.205C874.639 529.601 882.22 530.887 887.653 527.072L887.745 527.011L966.118 470.648C963.398 469.657 960.051 467.005 956.728 462.384C953.399 457.763 951.953 453.745 951.873 450.853Z" fill="#323232"/>
<path d="M969.871 469.46C969.841 469.485 969.81 469.503 969.773 469.522C967.349 471.085 961.995 467.602 957.725 461.664C953.449 455.72 951.849 449.53 954.107 447.734C954.138 447.709 954.162 447.684 954.193 447.666C956.574 445.955 962.014 449.444 966.339 455.468C970.671 461.486 972.246 467.75 969.871 469.46Z" fill="white"/>
<path d="M968.425 471.097C965.466 471.097 961.072 468.427 956.722 462.384C951.221 454.742 950.858 448.743 953.338 446.774C953.387 446.731 953.442 446.687 953.498 446.651C955.085 445.531 957.467 445.875 960.199 447.635C962.623 449.192 965.158 451.721 967.336 454.754C971.477 460.507 974.025 467.953 970.61 470.445C970.542 470.5 970.468 470.549 970.388 470.592C969.841 470.925 969.182 471.097 968.425 471.097ZM954.907 448.663C954.888 448.675 954.876 448.693 954.87 448.693C953.553 449.739 954.378 454.908 958.722 460.944C963.054 466.968 967.687 469.399 969.102 468.488C969.121 468.476 969.139 468.463 969.164 468.451C970.493 467.454 969.668 462.206 965.336 456.188C963.331 453.394 961.035 451.093 958.87 449.703C957.11 448.57 955.59 448.177 954.907 448.663ZM969.102 468.5C969.096 468.5 969.096 468.5 969.102 468.5C969.096 468.5 969.096 468.5 969.102 468.5Z" fill="#323232"/>
<path d="M888.361 528.081C882.355 532.296 874.061 530.9 869.766 524.925C868.061 522.556 867.237 519.812 867.237 517.098C867.237 512.926 869.175 508.816 872.824 506.195L876.073 503.856C879.131 505.573 882.958 509.074 883.844 516.021C884.392 520.341 886.232 524.506 888.361 528.081Z" fill="#7AB7AC"/>
<path d="M996.607 458.569C991.063 458.569 986.553 454.059 986.553 448.515C986.553 442.971 991.063 438.461 996.607 438.461C1002.15 438.461 1006.66 442.971 1006.66 448.515C1006.66 454.059 1002.15 458.569 996.607 458.569ZM996.607 440.916C992.417 440.916 989.014 444.325 989.014 448.509C989.014 452.693 992.423 456.102 996.607 456.102C1000.79 456.102 1004.2 452.693 1004.2 448.509C1004.2 444.325 1000.79 440.916 996.607 440.916Z" fill="#323232"/>
<path d="M972.837 425.059C968.819 425.059 965.546 421.792 965.546 417.768C965.546 413.75 968.813 410.476 972.837 410.476C976.855 410.476 980.129 413.744 980.129 417.768C980.129 421.786 976.861 425.059 972.837 425.059ZM972.837 412.944C970.173 412.944 968.007 415.11 968.007 417.774C968.007 420.438 970.173 422.604 972.837 422.604C975.502 422.604 977.667 420.438 977.667 417.774C977.667 415.11 975.502 412.944 972.837 412.944Z" fill="#323232"/>
<path d="M978.443 377.951C975.262 377.951 972.671 375.36 972.671 372.179C972.671 368.998 975.262 366.407 978.443 366.407C981.624 366.407 984.214 368.998 984.214 372.179C984.221 375.36 981.63 377.951 978.443 377.951ZM978.443 368.869C976.615 368.869 975.132 370.358 975.132 372.179C975.132 374.006 976.621 375.489 978.443 375.489C980.264 375.489 981.753 374 981.753 372.179C981.759 370.351 980.27 368.869 978.443 368.869Z" fill="#323232"/>
<path d="M953.436 343.69C951.344 343.69 949.646 341.992 949.646 339.9C949.646 337.807 951.344 336.109 953.436 336.109C955.528 336.109 957.227 337.807 957.227 339.9C957.227 341.992 955.528 343.69 953.436 343.69ZM953.436 338.577C952.704 338.577 952.107 339.173 952.107 339.906C952.107 340.638 952.704 341.235 953.436 341.235C954.169 341.235 954.765 340.638 954.765 339.906C954.765 339.173 954.169 338.577 953.436 338.577Z" fill="#323232"/>
<path d="M880.681 531.718C876.11 531.718 871.606 529.601 868.763 525.639C866.96 523.128 866 520.175 866 517.092C866 512.385 868.283 507.936 872.098 505.192L875.347 502.853L953.381 446.731C953.922 446.343 954.679 446.454 955.079 446.989C955.485 447.524 955.387 448.281 954.864 448.693C953.547 449.739 954.372 454.908 958.716 460.944C963.048 466.968 967.681 469.399 969.096 468.488C969.594 468.168 970.247 468.248 970.653 468.673C970.899 468.931 971.022 469.282 970.991 469.639C970.96 469.996 970.776 470.322 970.487 470.525L889.099 529.06C886.545 530.856 883.604 531.718 880.681 531.718ZM951.873 450.853L873.544 507.191C870.363 509.474 868.467 513.178 868.467 517.098C868.467 519.658 869.261 522.119 870.763 524.205C874.639 529.601 882.22 530.887 887.653 527.072L887.745 527.011L966.118 470.648C963.398 469.657 960.051 467.005 956.728 462.384C953.399 457.763 951.953 453.745 951.873 450.853Z" fill="#323232"/>
<path d="M968.425 471.097C965.466 471.097 961.072 468.427 956.722 462.384C951.221 454.742 950.858 448.743 953.338 446.774C953.387 446.731 953.442 446.687 953.498 446.651C955.085 445.531 957.467 445.875 960.199 447.635C962.623 449.192 965.158 451.721 967.336 454.754C971.477 460.507 974.025 467.953 970.61 470.445C970.542 470.5 970.468 470.549 970.388 470.592C969.841 470.925 969.182 471.097 968.425 471.097ZM954.907 448.663C954.888 448.675 954.876 448.693 954.87 448.693C953.553 449.739 954.378 454.908 958.722 460.944C963.054 466.968 967.687 469.399 969.102 468.488C969.121 468.476 969.139 468.463 969.164 468.451C970.493 467.454 969.668 462.206 965.336 456.188C963.331 453.394 961.035 451.093 958.87 449.703C957.11 448.57 955.59 448.177 954.907 448.663ZM969.102 468.5C969.096 468.5 969.096 468.5 969.102 468.5C969.096 468.5 969.096 468.5 969.102 468.5Z" fill="#323232"/>
<path d="M1157.6 521.725C1152.52 523.928 1148.73 522.654 1146.23 520.864L1153.34 513.751C1153.41 513.892 1153.49 514.034 1153.57 514.175C1154.9 516.563 1156.26 519.129 1157.6 521.725Z" fill="#B05D45"/>
<path d="M1132.92 501.561C1132.66 489.249 1142.59 490.123 1142.59 490.123C1142.97 478.832 1153.25 478.702 1153.25 478.702C1154.64 470.328 1164.29 470.199 1164.29 470.199C1165.63 466.464 1169.06 465.695 1170.67 465.541C1171.19 465.492 1171.52 465.504 1171.52 465.504C1175.68 465.59 1181.44 471.048 1187.23 478.21C1198.42 492.061 1209.73 512.262 1209.73 512.262C1199.75 533.441 1186.01 540.535 1177.13 542.874C1171.81 544.283 1168.23 543.981 1168.23 543.981C1168.23 543.981 1168.23 543.975 1168.22 543.963C1168 543.483 1162.61 531.847 1156.88 520.784C1155.54 518.187 1154.18 515.621 1152.86 513.234C1152.78 513.092 1152.7 512.951 1152.63 512.809C1152.08 511.831 1151.54 510.883 1151.01 509.979C1149.83 507.955 1148.72 506.145 1147.72 504.687C1146.73 503.235 1145.85 502.127 1145.13 501.475C1142.1 498.737 1138.42 498.577 1135.96 499.605C1134.87 500.06 1133.77 500.749 1132.92 501.561Z" fill="#B05D45"/>
<path d="M1154.08 495.476C1153.73 495.476 1153.38 495.322 1153.13 495.027C1149.45 490.541 1142.81 491.335 1142.74 491.347C1142.07 491.433 1141.45 490.959 1141.37 490.289C1141.28 489.618 1141.75 488.997 1142.42 488.911C1142.75 488.867 1150.47 487.908 1155.04 493.47C1155.47 493.993 1155.4 494.768 1154.87 495.199C1154.64 495.384 1154.36 495.476 1154.08 495.476Z" fill="#323232"/>
<path d="M1165.58 484.185C1165.23 484.185 1164.88 484.031 1164.63 483.736C1160.95 479.25 1154.31 480.05 1154.24 480.056C1153.57 480.142 1152.95 479.668 1152.87 478.998C1152.78 478.327 1153.25 477.706 1153.92 477.619C1154.25 477.576 1161.98 476.616 1166.54 482.179C1166.97 482.702 1166.9 483.477 1166.37 483.908C1166.13 484.093 1165.86 484.185 1165.58 484.185Z" fill="#323232"/>
<path d="M1176.38 475.761C1176.02 475.761 1175.67 475.607 1175.42 475.312C1171.74 470.826 1165.1 471.62 1165.04 471.632C1164.36 471.719 1163.74 471.245 1163.66 470.574C1163.57 469.903 1164.04 469.282 1164.72 469.196C1165.04 469.153 1172.77 468.193 1177.33 473.755C1177.76 474.278 1177.69 475.054 1177.16 475.484C1176.92 475.669 1176.65 475.761 1176.38 475.761Z" fill="#323232"/>
<path d="M1097.21 632.439C1097.21 632.482 1097.22 635.583 1097.22 635.583L1088.48 649.76C1087.36 651.612 1088.33 654.043 1090.43 654.566C1094.28 655.526 1098.52 654.849 1102.37 654.227C1106.61 653.55 1110.82 652.572 1115.1 652.166C1116.7 652.018 1118.36 651.926 1119.94 652.234C1122.16 652.664 1123.74 654.492 1123.9 656.744C1124.04 658.682 1123.05 660.485 1121.83 661.925C1120.69 663.285 1119.28 664.478 1117.76 665.408C1118.12 665.235 1123.51 662.762 1125.77 669.099C1128.12 675.659 1117.63 680.71 1117.63 680.71C1129.61 690.955 1105.65 699.108 1105.65 699.108C1110.96 704.917 1103.55 710.965 1089.84 711.833C1078.2 712.565 1063.44 709.378 1056.3 700.69C1055.04 699.145 1054.01 697.429 1053.28 695.527C1049.92 686.716 1049.62 676.754 1052.9 667.856C1057.1 656.449 1066.25 644.838 1076.54 638.328C1080.07 636.094 1083.97 634.334 1088.05 633.393C1089.8 632.987 1091.6 632.827 1093.38 632.667C1094.13 632.599 1094.88 632.537 1095.64 632.5L1097.21 632.439Z" fill="#B05D45"/>
<path d="M1080.35 676.372C1079.69 676.372 1079.14 675.843 1079.12 675.173C1079.1 674.496 1079.64 673.93 1080.32 673.911C1101.54 673.351 1117 664.441 1117.15 664.355C1117.74 664.011 1118.49 664.208 1118.84 664.792C1119.18 665.377 1118.99 666.134 1118.4 666.478C1117.76 666.86 1102.27 675.794 1080.39 676.372C1080.38 676.372 1080.36 676.372 1080.35 676.372Z" fill="#323232"/>
<path d="M1081.32 691.152C1080.65 691.152 1080.11 690.623 1080.09 689.952C1080.07 689.276 1080.6 688.71 1081.29 688.691C1102.54 688.131 1117.97 679.228 1118.12 679.135C1118.7 678.791 1119.46 678.988 1119.81 679.572C1120.15 680.157 1119.95 680.914 1119.37 681.258C1118.72 681.64 1103.23 690.574 1081.36 691.152C1081.34 691.152 1081.33 691.152 1081.32 691.152Z" fill="#323232"/>
<path d="M1089.46 703.139C1087.7 703.139 1085.78 703.071 1083.7 702.911C1083.03 702.862 1082.52 702.271 1082.57 701.594C1082.62 700.917 1083.21 700.407 1083.89 700.462C1098.45 701.563 1104.99 698.075 1105.06 698.044C1105.66 697.718 1106.4 697.933 1106.73 698.524C1107.06 699.115 1106.85 699.859 1106.26 700.191C1106.01 700.327 1100.84 703.139 1089.46 703.139Z" fill="#323232"/>
<path d="M973.576 550.411C946.096 570.692 925.144 559.198 924.437 558.798L930.184 538.443C930.184 538.443 916.271 536.056 909.367 515.978C909.367 515.978 908.832 522.353 903.257 521.239C897.683 520.119 889.081 509.13 890.194 491.126C890.194 491.126 891.437 484.652 897.812 486.24C897.812 486.24 898.003 475.195 908.518 479.176C908.518 479.176 907.454 471.029 916.007 471.528C916.007 471.528 916.321 468.021 919.988 467.861C919.988 467.861 915.847 459.738 924.449 458.145C927.556 457.566 931.87 459.215 936.109 461.56C946.213 467.134 954.341 475.681 959.805 485.846C962.918 491.649 966.044 498.792 967.669 506.342C971.619 524.697 973.576 550.411 973.576 550.411Z" fill="#FFAB93"/>
<path d="M916.745 517.35C915.391 517.35 914.032 516.987 912.696 516.261C910.856 515.264 909.38 513.658 908.414 511.616L896.692 486.763C896.403 486.148 896.667 485.415 897.283 485.126C897.898 484.837 898.63 485.102 898.919 485.717L910.641 510.57C911.38 512.132 912.493 513.357 913.872 514.101C915.908 515.209 917.933 515.141 919.895 513.905C921.034 513.185 921.717 512.268 921.975 511.086C922.634 508.102 920.382 504.564 920.363 504.527C920.345 504.503 920.332 504.478 920.32 504.453L906.611 479.484C906.285 478.887 906.5 478.142 907.097 477.81C907.694 477.484 908.444 477.699 908.771 478.296L922.461 503.229C922.769 503.715 925.23 507.776 924.387 511.603C923.987 513.437 922.917 514.908 921.212 515.984C919.766 516.889 918.259 517.35 916.745 517.35Z" fill="#323232"/>
<path d="M927.636 509.825C925.944 509.825 923.84 509.259 921.748 507.216C921.261 506.742 921.249 505.961 921.729 505.475C922.203 504.989 922.984 504.982 923.47 505.456C925.729 507.659 927.901 507.561 929.328 507.087C931.371 506.41 932.811 504.699 933.014 503.426C933.352 501.315 932.842 499.106 931.574 497.199L914.979 472.205C914.604 471.639 914.758 470.876 915.324 470.5C915.89 470.125 916.653 470.279 917.028 470.845L933.623 495.839C935.235 498.263 935.881 501.1 935.438 503.826C935.057 506.176 932.811 508.533 930.097 509.431C929.476 509.634 928.627 509.825 927.636 509.825Z" fill="#323232"/>
<path d="M939.044 500.983C938.429 500.983 937.801 500.897 937.186 500.718C933.715 499.728 931.236 496.663 930.061 494.922C929.679 494.356 929.833 493.593 930.393 493.211C930.959 492.83 931.722 492.984 932.103 493.544C933.088 495.002 935.143 497.568 937.857 498.343C939.278 498.749 940.767 498.399 941.948 497.377C943.204 496.294 943.825 494.719 943.616 493.156C943.019 488.664 939.906 483.871 935.5 480.653C933.906 479.49 932.153 478.469 930.46 477.472C928.756 476.475 926.99 475.441 925.341 474.247C922.72 472.358 920.665 470.525 919.053 468.648C918.609 468.131 918.671 467.356 919.188 466.913C919.705 466.47 920.48 466.531 920.923 467.048C922.406 468.777 924.32 470.482 926.781 472.254C928.338 473.38 930.048 474.383 931.703 475.349C933.451 476.37 935.26 477.429 936.952 478.665C941.887 482.265 945.376 487.692 946.059 492.83C946.373 495.217 945.443 497.611 943.561 499.235C942.244 500.386 940.662 500.983 939.044 500.983Z" fill="#323232"/>
<path d="M933.002 539.914C931.113 539.914 930.011 539.668 929.894 539.637C929.236 539.477 928.824 538.819 928.984 538.154C929.144 537.496 929.796 537.084 930.46 537.243C930.571 537.268 937.998 538.849 948.698 532.586C949.283 532.241 950.04 532.438 950.384 533.022C950.729 533.607 950.532 534.364 949.948 534.708C942.441 539.102 936.423 539.914 933.002 539.914Z" fill="#323232"/>
<path d="M1314.68 386.762C1313.44 386.762 1312.23 386.676 1311.05 386.504L1326.61 461.8C1295.21 492.245 1271.15 478.77 1265.18 474.531L1265.04 471.817L1264.06 453.487C1263.53 453.782 1263 454.065 1262.47 454.324L1262.46 454.33C1257.65 456.742 1252.47 458.052 1247.08 458.052C1225.07 458.052 1206.64 436.246 1201.86 406.981C1201.07 402.151 1200.65 397.118 1200.65 391.943C1200.65 388.017 1200.89 384.061 1201.38 380.135C1201.53 378.941 1201.7 377.754 1201.91 376.566C1202.34 373.927 1202.89 371.311 1203.57 368.727C1205.55 361.165 1208.59 353.904 1212.81 347.339C1215.68 342.884 1219.16 338.798 1223.11 335.223C1231.67 327.476 1242.43 322.135 1253.86 320.616C1255.93 320.339 1258.02 320.222 1260.1 320.222C1278.92 320.222 1294.78 328.75 1299.59 340.38C1299.61 340.423 1299.62 340.459 1299.64 340.503C1303.86 337.432 1309.06 335.617 1314.68 335.617C1328.8 335.617 1340.25 347.068 1340.25 361.189C1340.25 375.317 1328.8 386.762 1314.68 386.762Z" fill="#B05D45"/>
<path d="M1264.06 454.717C1263.62 454.717 1263.19 454.477 1262.97 454.059C1262.65 453.456 1262.88 452.711 1263.48 452.398C1263.66 452.299 1281.65 442.565 1285.63 422.106C1285.76 421.441 1286.41 421.004 1287.08 421.133C1287.74 421.263 1288.18 421.909 1288.05 422.579C1283.83 444.22 1265.41 454.164 1264.63 454.576C1264.45 454.668 1264.25 454.717 1264.06 454.717Z" fill="#323232"/>
<path d="M1299.59 340.38C1295.16 354.901 1279.97 365.601 1261.89 365.601C1241.75 365.601 1225.17 352.292 1223.11 335.223C1231.67 327.476 1242.43 322.135 1253.86 320.616C1255.93 320.339 1258.02 320.222 1260.1 320.222C1278.92 320.222 1294.78 328.75 1299.59 340.38Z" fill="#323232"/>
<path d="M1272.27 231.013C1269.03 230.841 1265.91 232.349 1263.96 234.951C1257.43 243.689 1243.8 265.471 1251.03 287.173C1260.37 315.207 1289.4 293.831 1289.4 293.831C1289.4 293.831 1303.77 285.081 1318.78 287.549C1320.44 287.819 1321.99 286.613 1322.05 284.927C1322.27 279.045 1320.63 266.419 1304.5 257.62C1302.13 256.327 1299.35 256.057 1296.79 256.912C1292.16 258.456 1284.57 262.228 1278.43 271.23C1278.43 271.23 1279.6 252.666 1298.22 245.849C1299.81 245.27 1300.3 243.27 1299.13 242.052C1295.48 238.243 1287.16 231.813 1272.27 231.013Z" fill="#323232"/>
<path d="M1276.11 398.305C1279.24 398.305 1281.77 395.771 1281.77 392.644C1281.77 389.518 1279.24 386.983 1276.11 386.983C1272.99 386.983 1270.45 389.518 1270.45 392.644C1270.45 395.771 1272.99 398.305 1276.11 398.305Z" fill="#EC6834"/>
<path d="M1218.71 408.636C1218.61 408.636 1218.51 408.624 1218.42 408.599C1216.69 408.175 1215.53 406.52 1215.7 404.754L1216.11 400.699C1216.18 400.022 1216.77 399.524 1217.46 399.597C1218.13 399.665 1218.62 400.268 1218.56 400.945L1218.15 405C1218.1 405.554 1218.46 406.077 1219.01 406.212C1219.66 406.378 1220.07 407.043 1219.9 407.701C1219.77 408.261 1219.26 408.636 1218.71 408.636Z" fill="#323232"/>
<path d="M1238.25 391.604C1239.75 391.604 1240.96 390.392 1240.96 388.897C1240.96 387.402 1239.75 386.19 1238.25 386.19C1236.76 386.19 1235.55 387.402 1235.55 388.897C1235.55 390.392 1236.76 391.604 1238.25 391.604Z" fill="#323232"/>
<path d="M1208.28 393.783C1209.77 393.783 1210.98 392.571 1210.98 391.075C1210.98 389.58 1209.77 388.368 1208.28 388.368C1206.78 388.368 1205.57 389.58 1205.57 391.075C1205.57 392.571 1206.78 393.783 1208.28 393.783Z" fill="#323232"/>
<path d="M1189.85 409.086C1189.55 409.086 1189.27 408.981 1189.04 408.784C1188.79 408.569 1188.64 408.267 1188.62 407.941L1186.41 377.692C1186.39 377.366 1186.49 377.046 1186.71 376.8C1186.92 376.554 1187.23 376.4 1187.55 376.375L1258.1 371.237C1258.79 371.188 1259.37 371.699 1259.42 372.376L1261.62 402.619C1261.67 403.295 1261.16 403.886 1260.48 403.935L1224.77 406.538C1224.19 406.581 1223.66 406.206 1223.5 405.646C1222.88 403.455 1220.86 401.929 1218.58 401.929C1216.02 401.929 1213.84 403.843 1213.51 406.372C1213.44 406.95 1212.96 407.4 1212.38 407.443L1189.93 409.079C1189.9 409.086 1189.88 409.086 1189.85 409.086ZM1188.96 378.744L1190.99 406.538L1211.28 405.061C1212.15 401.813 1215.13 399.468 1218.58 399.468C1221.62 399.468 1224.34 401.296 1225.53 404.021L1259.08 401.579L1257.06 373.791L1188.96 378.744Z" fill="#7AB7AC"/>
<path d="M1258.2 373.699C1257.75 373.699 1257.33 373.459 1257.11 373.047C1256.79 372.444 1257.01 371.699 1257.62 371.379L1288.37 355.006C1288.97 354.686 1289.72 354.913 1290.04 355.516C1290.36 356.119 1290.13 356.864 1289.53 357.184L1258.77 373.557C1258.59 373.65 1258.39 373.699 1258.2 373.699Z" fill="#7AB7AC"/>
<path d="M1308.17 363.731C1307.65 363.731 1307.16 363.398 1307 362.882C1306.79 362.235 1307.14 361.54 1307.78 361.331L1324.55 355.879C1325.2 355.67 1325.89 356.021 1326.1 356.667C1326.31 357.313 1325.96 358.008 1325.31 358.217L1308.55 363.669C1308.42 363.712 1308.29 363.731 1308.17 363.731Z" fill="#323232"/>
<path d="M1228.91 415.337C1228.31 415.337 1227.79 414.9 1227.69 414.291C1227.59 413.62 1228.05 412.993 1228.72 412.888C1228.78 412.876 1232.16 412.298 1233.82 409.535C1235.08 407.455 1235.1 404.612 1233.9 401.086C1233.68 400.44 1234.03 399.745 1234.67 399.524C1235.32 399.308 1236.01 399.647 1236.24 400.293C1237.69 404.551 1237.58 408.101 1235.92 410.833C1233.64 414.593 1229.28 415.294 1229.1 415.319C1229.04 415.337 1228.97 415.337 1228.91 415.337Z" fill="#323232"/>
<path d="M1248.88 377.324C1250.8 375.169 1249.47 370.865 1245.92 367.71C1242.36 364.555 1237.93 363.744 1236.02 365.899C1234.11 368.053 1235.43 372.358 1238.99 375.513C1242.54 378.668 1246.97 379.479 1248.88 377.324Z" fill="#323232"/>
<path d="M1209.62 377.268C1213.17 374.113 1214.5 369.809 1212.58 367.654C1210.67 365.5 1206.24 366.311 1202.69 369.466C1199.13 372.621 1197.81 376.925 1199.72 379.08C1201.63 381.234 1206.06 380.423 1209.62 377.268Z" fill="#323232"/>
<path d="M1278.86 441.777L1265.18 471.817H1265.04L1264.06 453.487C1263.53 453.782 1263 454.065 1262.47 454.324L1275.15 444.62L1278.86 441.777Z" fill="#323232"/>
<path d="M1076.01 450.515L1058.96 464.384L1059.3 444.066C1059.46 444.195 1059.63 444.325 1059.81 444.448C1060.61 445.032 1061.45 445.451 1062.32 445.721C1066.6 448.158 1071.2 449.807 1076.01 450.515Z" fill="#323232"/>
</g>
<defs>
<clipPath id="clip0_2_2">
<rect width="1354" height="763" fill="white"/>
</clipPath>
</defs>
</svg>
